nRows=5
nColumns=145
DataType=double
version=3
OpenSimVersion=4.2-2021-03-12-fcedec9
endheader
time	ground_force_1_vx	ground_force_1_vy	ground_force_1_vz	ground_force_1_px	ground_force_1_py	ground_force_1_pz	ground_force_2_vx	ground_force_2_vy	ground_force_2_vz	ground_force_2_px	ground_force_2_py	ground_force_2_pz	ground_force_3_vx	ground_force_3_vy	ground_force_3_vz	ground_force_3_px	ground_force_3_py	ground_force_3_pz	ground_force_4_vx	ground_force_4_vy	ground_force_4_vz	ground_force_4_px	ground_force_4_py	ground_force_4_pz	ground_force_5_vx	ground_force_5_vy	ground_force_5_vz	ground_force_5_px	ground_force_5_py	ground_force_5_pz	ground_force_6_vx	ground_force_6_vy	ground_force_6_vz	ground_force_6_px	ground_force_6_py	ground_force_6_pz	ground_force_7_vx	ground_force_7_vy	ground_force_7_vz	ground_force_7_px	ground_force_7_py	ground_force_7_pz	ground_force_8_vx	ground_force_8_vy	ground_force_8_vz	ground_force_8_px	ground_force_8_py	ground_force_8_pz	ground_force_9_vx	ground_force_9_vy	ground_force_9_vz	ground_force_9_px	ground_force_9_py	ground_force_9_pz	ground_force_10_vx	ground_force_10_vy	ground_force_10_vz	ground_force_10_px	ground_force_10_py	ground_force_10_pz	ground_force_11_vx	ground_force_11_vy	ground_force_11_vz	ground_force_11_px	ground_force_11_py	ground_force_11_pz	ground_force_12_vx	ground_force_12_vy	ground_force_12_vz	ground_force_12_px	ground_force_12_py	ground_force_12_pz	ground_force_13_vx	ground_force_13_vy	ground_force_13_vz	ground_force_13_px	ground_force_13_py	ground_force_13_pz	ground_force_14_vx	ground_force_14_vy	ground_force_14_vz	ground_force_14_px	ground_force_14_py	ground_force_14_pz	ground_force_15_vx	ground_force_15_vy	ground_force_15_vz	ground_force_15_px	ground_force_15_py	ground_force_15_pz	ground_force_16_vx	ground_force_16_vy	ground_force_16_vz	ground_force_16_px	ground_force_16_py	ground_force_16_pz	ground_force_17_vx	ground_force_17_vy	ground_force_17_vz	ground_force_17_px	ground_force_17_py	ground_force_17_pz	ground_force_18_vx	ground_force_18_vy	ground_force_18_vz	ground_force_18_px	ground_force_18_py	ground_force_18_pz	ground_force_19_vx	ground_force_19_vy	ground_force_19_vz	ground_force_19_px	ground_force_19_py	ground_force_19_pz	ground_force_20_vx	ground_force_20_vy	ground_force_20_vz	ground_force_20_px	ground_force_20_py	ground_force_20_pz	ground_force_21_vx	ground_force_21_vy	ground_force_21_vz	ground_force_21_px	ground_force_21_py	ground_force_21_pz	ground_force_22_vx	ground_force_22_vy	ground_force_22_vz	ground_force_22_px	ground_force_22_py	ground_force_22_pz	ground_force_23_vx	ground_force_23_vy	ground_force_23_vz	ground_force_23_px	ground_force_23_py	ground_force_23_pz	ground_force_24_vx	ground_force_24_vy	ground_force_24_vz	ground_force_24_px	ground_force_24_py	ground_force_24_pz
0.230000000000	-0.343006967618	1.903060509430	-1.821934244439	0.968480443428	0.815322415354	-0.248596835954	-1.373839704065	3.451832378683	-1.130615555789	1.039618547776	0.713045092010	-0.260668870050	-10.163651979007	12.348418434653	-3.303618338964	1.044424228638	0.692069480033	-0.256521382325	-33.373868082885	43.166146962024	1.853855859370	1.096913117127	0.594616968885	-0.320033799066	-1.105161324994	1.484204030018	-1.021730372492	0.996965910554	0.767521470028	-0.238443653709	0.093219760777	0.856172987531	-1.689645281148	0.934878227362	0.844451395345	-0.246179258905	-0.442964026707	1.601711942475	0.043167658142	1.090671575274	0.487889707452	-0.252636237599	2.269812907749	10.953644741835	2.376117640371	0.983496714731	0.109473648997	-0.336080696986	4.234428312000	23.621978606783	1.827862603267	0.983496714731	0.109473648997	-0.336080696986	-66.560212811907	166.892283201599	-26.393962806631	0.883292595781	0.870367454728	-0.238965484960	-153.756102000847	280.575743863674	-42.088803886767	0.896921704674	0.845342239007	-0.245525333071	-50.561441570624	45.743834547657	-23.577488638150	0.943570246140	0.802711636374	-0.262605594205	147.013669316041	349.254528780940	-41.558622917339	0.890589006710	0.899796972272	-0.207033642739	25.757163394896	105.595597283123	-56.324971064231	0.883964488548	0.903803179077	-0.210540487576	2.229151384115	95.386049186189	-81.234728877849	0.878602871273	0.902357378520	-0.212241652479	17.048160249112	45.397788916773	-17.415173403562	0.903804280805	0.908498623352	-0.204446778387	8.144917581251	34.911817688169	-16.585630231790	0.901506797430	0.907268795492	-0.204761733172	2.635405594877	20.452833785136	-14.257449315733	0.896778373390	0.907426211267	-0.206285647736	1.677441014807	5.288541133709	-0.649144441039	0.938662529103	0.870233900473	-0.251852418699	-7.786243486490	62.035651320422	-62.340031388165	0.894619395210	0.912512459747	-0.218691172173	3.753525388286	7.330453268065	-1.244253615470	0.924088280534	0.875184263186	-0.263232424072	28.332429724018	69.994923842595	21.295664583141	1.151016990607	0.457689914769	-0.293014551312	256.798489420059	665.091611526506	237.679003405473	1.151099073430	0.456776329666	-0.288052819530	76.406735340303	172.628972268022	51.196485056281	1.149999779933	0.458570631823	-0.300703246173
0.240000000000	-0.303275447755	2.011453891505	-1.888945936184	0.962612733944	0.809195569685	-0.248337401678	-1.367640383589	3.632825066176	-1.163945827527	1.032357184670	0.706614234127	-0.259935834481	-1.474962700307	1.838321568912	-0.490882187872	1.036845066753	0.685348724510	-0.255668804381	-11.277577020725	14.873271381745	0.630761438884	1.088729407054	0.587326355758	-0.318816686737	-1.083393258193	1.516116254294	-1.034607516394	0.990530350306	0.760890485997	-0.237683641393	0.131361171200	0.886301179341	-1.730624415167	0.929500597893	0.838508122080	-0.246279947587	-0.430082563534	1.636054235606	0.044516345070	1.080046769304	0.481401100884	-0.251810186011	2.574534784952	9.886589888918	2.243410814843	0.954341387170	0.108601207520	-0.338428801437	4.526715142918	19.569866399405	1.685932946404	0.954341387170	0.108601207520	-0.338428801437	-70.647134421699	175.281791393355	-31.061643670685	0.878242711339	0.864833356311	-0.238952446491	-157.042596415608	282.836701429380	-46.175959649201	0.891450561825	0.839678825774	-0.245471749934	-21.945479531174	19.713966126570	-10.471987075081	0.937504041778	0.796606579722	-0.262237188699	130.441021868367	321.954170042215	-40.596463271112	0.886648124847	0.894172198038	-0.207001208379	24.910237618907	107.829783714274	-58.832192686254	0.880049744417	0.898244753402	-0.210464672020	1.376756520240	115.729254249758	-100.825120190199	0.874611298101	0.896852262399	-0.212182733623	15.173247891821	42.332599657544	-16.355260942174	0.900183121617	0.902743243345	-0.204200761671	7.424883011508	34.101050651420	-16.408838137857	0.897839132076	0.901536001409	-0.204563082897	2.403692068602	20.893257676585	-14.797770325623	0.893072526921	0.901740308006	-0.206173499710	1.710262882739	5.345574950722	-0.626462999598	0.933506823079	0.864174880511	-0.251363480553	-10.234264582371	73.552755134164	-75.941511149425	0.890722586299	0.906856167521	-0.218605848154	3.804910578403	7.396027267988	-1.163973945208	0.918935666336	0.869271705911	-0.262863597625	52.668179197544	116.631511858745	37.559976211829	1.138916649649	0.448464046061	-0.292768844811	481.461199547518	1115.623486105699	418.433278026561	1.138974798339	0.447511432636	-0.287813797333	140.821347391405	286.170942006121	90.577168102402	1.137908136088	0.449447254009	-0.300452607110
0.250000000000	-0.285629710970	2.220047688030	-2.047568132515	0.958016210657	0.802812959305	-0.249140056993	-1.397667538615	3.929322028122	-1.227347177216	1.026113455737	0.699597261914	-0.261102637650	-1.434246441210	1.843844245272	-0.479741318009	1.030209206291	0.678182521770	-0.256827399807	-1.380621629737	1.878791311802	0.086913653040	1.080645229550	0.578960810817	-0.320104774221	-1.081969434865	1.573941483369	-1.057191779780	0.985383653972	0.753930289843	-0.238389606028	0.171473698944	0.955719710092	-1.842489354568	0.925387695568	0.832479510695	-0.246966931324	-0.418676954032	1.716878103236	0.048124623423	1.069586970827	0.474858150274	-0.252863051390	3.156870321988	9.487453559983	2.207263457325	0.918604827873	0.109537140805	-0.340189389495	5.795535768057	19.304440614077	1.743580902399	0.918604827873	0.109537140805	-0.340189389495	-84.104348888582	212.328469193971	-40.708798494873	0.874469335533	0.859344071759	-0.238828431717	-186.093578297835	338.473196764136	-58.573786478567	0.887286477524	0.834008379254	-0.245425597386	-6.114957258567	5.565594603440	-2.966973128871	0.932618662175	0.790308828922	-0.262530090023	138.105966570997	350.188362052610	-45.540847745372	0.883541870643	0.888613889408	-0.206996574899	27.292895534716	123.649883044120	-68.250661793007	0.876967511400	0.892768341352	-0.210408061593	0.228364594603	142.914915153498	-126.490693857791	0.871496260145	0.891445350770	-0.212076165553	16.200693914317	46.900566019258	-18.251187491591	0.897212828486	0.897009461113	-0.204328102601	7.814652771083	37.954061335406	-18.416564964380	0.894850026572	0.895832754052	-0.204667991312	2.342621888375	22.623044816299	-16.182170481852	0.890072532138	0.896097704227	-0.206236766804	1.781258375799	5.440978490776	-0.613764136174	0.929608523062	0.857939069180	-0.251723600176	-11.999357359434	78.502472914369	-82.243127567444	0.887680849981	0.901226816245	-0.218655687599	3.919582400882	7.498914241459	-1.161193795459	0.915005119566	0.863211726783	-0.263102906779	81.668421350892	155.846472956349	52.439733633112	1.125469014269	0.438525909805	-0.295115739424	748.846554163871	1488.931003435446	582.314961384730	1.125555091670	0.437533559705	-0.290168903963	216.420732645232	380.813700226229	126.092307790873	1.124387474165	0.439630707341	-0.302773003553
0.260000000000	-0.275829752515	2.374502075549	-2.153686380931	0.955035383872	0.796179421629	-0.250740145991	-1.397251070459	4.162464045071	-1.263388057109	1.020999805809	0.692015988655	-0.263653814214	-1.372287600523	1.829199845008	-0.455201111950	1.024603302265	0.670583555980	-0.259437885179	-1.282592493279	1.820493866930	0.097098270160	1.072661208916	0.569578575656	-0.323171567572	-1.074828314337	1.620418967657	-1.064073324424	0.981809305800	0.746648158620	-0.240126486365	0.186846891261	1.025695615711	-1.948854932335	0.922993447677	0.826366152691	-0.248121490679	-0.424624472402	1.928603449154	0.056520532584	1.059293513091	0.468261078536	-0.255266857419	3.995058343799	9.382102474003	2.195798193402	0.876766917469	0.111758266118	-0.341066715122	7.316328119311	18.888118241277	1.696408421780	0.876766917469	0.111758266118	-0.341066715122	-95.856771668257	252.808500634928	-49.214971651589	0.872680701757	0.853899786274	-0.238616464560	-192.317330359369	360.329752443560	-62.887025864271	0.884931493282	0.828330903801	-0.245387682657	-2.075605882409	1.942042463083	-1.013126352591	0.929156911746	0.783821203779	-0.263282382944	141.956557340606	357.743037024384	-45.970498934584	0.882912464961	0.883122451064	-0.207094295991	32.193394629931	148.944038596251	-81.771543845213	0.876337276064	0.887374571223	-0.210381586211	-1.183983828443	163.338289300339	-144.071082776297	0.870810603582	0.886137560603	-0.211928570762	21.226011374960	62.065693825237	-24.138047974432	0.896774813355	0.891297317564	-0.204747316716	9.587005081321	47.838016390759	-23.145097836986	0.894386072788	0.890159130558	-0.205032703427	2.495338222104	26.280891351007	-18.743004233999	0.889581444546	0.890498568003	-0.206501048716	1.880638412314	5.551883011067	-0.625059240030	0.927502881451	0.851528871246	-0.252669819277	-13.083109500100	79.089548270833	-82.342918122934	0.887012543957	0.895624470853	-0.218885853805	4.065950712284	7.589224536996	-1.217477223728	0.912751144945	0.857006056323	-0.263757454025	112.751382684563	180.572254752524	62.593832028397	1.110732982588	0.427898600994	-0.299459339895	1036.446391971748	1720.974612107181	694.751893971093	1.110894765888	0.426865766100	-0.294522698592	296.165256924147	439.289529022938	149.839744625601	1.109503251172	0.429143166339	-0.307072671511
0.270000000000	-0.168220826034	2.495692319997	-2.198489609365	0.949146961360	0.790942187167	-0.251428123969	-1.262151936305	4.381926039091	-1.284685187930	1.011152280998	0.684769609699	-0.264713223526	-1.255034981919	1.819560780624	-0.434640240714	1.013708284440	0.663313313095	-0.260553421852	-1.160902474653	1.787376424740	0.101263184335	1.058301576515	0.560195017252	-0.324429321442	-0.998585126456	1.673372243636	-1.064191274197	0.967812236773	0.750600910986	-0.247455323239	0.265043823940	1.088584830832	-2.018202347661	0.918285503905	0.822187380659	-0.248787066630	-0.417440440171	2.298401192454	0.072373860335	1.041210951676	0.459834539341	-0.256591380793	11.988359575133	24.458073522355	5.869711575981	0.839608605150	0.112923867960	-0.342463524338	26.367801474460	58.766455442974	5.439105554524	0.839608605150	0.112923867960	-0.342463524338	-87.618096719324	251.975703005025	-52.586618720456	0.868953543826	0.851256316915	-0.238498096195	-173.803292411801	344.499222264315	-62.583168073051	0.880251246181	0.825277501157	-0.245365562377	-1.885585286474	1.858468121846	-0.955256190373	0.922771063483	0.779248148595	-0.263547563699	143.437050565443	359.104580685792	-45.979685430750	0.880382234734	0.880050761343	-0.206993093081	31.741450861538	147.787752782813	-81.363668875632	0.873945597048	0.884538916425	-0.210240564580	-1.436896916296	160.907838703275	-143.187973342177	0.868370451233	0.883501594843	-0.211760162643	22.377775753967	65.260923633101	-25.332049103274	0.894538744287	0.887723754676	-0.204708390121	9.989877688501	49.675849605600	-24.015759266272	0.892109559026	0.886671706012	-0.204982706200	2.472506186562	26.204077833388	-18.729658532996	0.887312507207	0.887184024662	-0.206425457617	2.074497078116	5.632973523505	-0.602968093856	0.923582994433	0.846956374898	-0.252841144278	-12.474224223638	73.271716860825	-76.756009120969	0.884863492440	0.892415999531	-0.218790177306	4.306675314276	7.604300405582	-1.199346769208	0.908978255748	0.852971060879	-0.263844511540	132.561272206286	189.799584054920	68.213183093478	1.090127131711	0.417011793771	-0.301329998514	1217.755629956783	1804.066472134583	754.446267257253	1.090272413109	0.415952320158	-0.296398491838	345.756068888270	459.656192790139	162.849043729002	1.088905990293	0.418349206584	-0.308928955097
